<svg width="80" height="81" viewBox="0 0 80 81" fill="none" xmlns="http://www.w3.org/2000/svg">
<rect x="0.5" y="1" width="79" height="79" rx="11.5" fill="#262529"/>
<path d="M35 23.8333H45C53.3334 23.8333 56.6667 27.1667 56.6667 35.5V45.5C56.6667 53.8333 53.3334 57.1667 45 57.1667H35C26.6667 57.1667 23.3334 53.8333 23.3334 45.5V35.5C23.3334 27.1667 26.6667 23.8333 35 23.8333Z" stroke="#E5CB9B" stroke-width="2" stroke-linecap="round" stroke-linejoin="round"/>
<path d="M34.2834 45.95L45.1834 35.05" stroke="#E5CB9B" stroke-width="2" stroke-linecap="round" stroke-linejoin="round"/>
<path d="M34.9666 37.7833C36.0988 37.7833 37.0166 36.8656 37.0166 35.7334C37.0166 34.6012 36.0988 33.6833 34.9666 33.6833C33.8345 33.6833 32.9166 34.6012 32.9166 35.7334C32.9166 36.8656 33.8345 37.7833 34.9666 37.7833Z" stroke="#E5CB9B" stroke-width="2" stroke-linecap="round" stroke-linejoin="round"/>
<path d="M45.8667 47.3167C46.9989 47.3167 47.9168 46.3988 47.9168 45.2666C47.9168 44.1345 46.9989 43.2167 45.8667 43.2167C44.7346 43.2167 43.8168 44.1345 43.8168 45.2666C43.8168 46.3988 44.7346 47.3167 45.8667 47.3167Z" stroke="#E5CB9B" stroke-width="2" stroke-linecap="round" stroke-linejoin="round"/>
<rect x="0.5" y="1" width="79" height="79" rx="11.5" stroke="#28272B"/>
</svg>
